<svg xmlns="http://www.w3.org/2000/svg"  viewBox="0 0 50 50" width="50px" height="50px" baseProfile="basic"><path d="M42.37,24.8C42,20,41.63,5.12,41.62,4.98L41.6,4H8.5v25l1.31,9.74l2.13,1.99L12.62,40l0.5-0.01 c0.82-0.61,1.74-1.2,2.76-1.74c0.85,0.34,2.1,1.15,2.82,1.63l1.24-0.03l2.56-1.47l1.88,1.38l2.15-0.04l1.97-1.34l1.65,1.27 l2.18-0.04l1.79-1.48c0,0,1.22,0.22,3.01,1.38l0.49-0.01l0.21,0.5l0.18,0.42l0.24-0.1l2.63-1.1l0.1-0.52 C41.05,38.33,42.75,29.75,42.37,24.8z M17.5,27c-1.38,0-2.5-1.12-2.5-2.5s1.12-2.5,2.5-2.5s2.5,1.12,2.5,2.5S18.88,27,17.5,27z M25.5,35.75c-3.5,0.25-6.75-3-6.75-3l0.87-0.87c0,0,2.86,1.99,5.63,1.62c3.75-0.5,5.5-1.38,5.5-1.38l1.13,0.76 C31.88,32.88,29,35.5,25.5,35.75z M33.5,27c-1.38,0-2.5-1.12-2.5-2.5s1.12-2.5,2.5-2.5s2.5,1.12,2.5,2.5S34.88,27,33.5,27z"/><path fill="#fff" d="M38.25,40.32l-0.24,0.1L37.83,40C37.97,40.09,38.11,40.2,38.25,40.32z"/><path d="M42.643,47.015c-3.43-5.716-7.074-7.373-8.284-7.785l-3.088,2.55l-2.808-2.17l-3.112,2.116l-2.918-2.157l-3.236,1.867 l-0.522-0.369c-0.489-0.345-1.806-1.227-2.757-1.701c-5.438,3.049-7.75,7.537-7.773,7.583l-1.788-0.896 c0.108-0.216,2.716-5.325,9.051-8.686l0.409-0.217l0.431,0.172c0.953,0.381,2.309,1.251,3.05,1.748l3.271-1.888l2.832,2.093 l3.138-2.134l2.692,2.08l2.616-2.161l0.456,0.082c0.217,0.039,5.376,1.045,10.056,8.845L42.643,47.015z"/></svg>